<svg width="36" height="30" viewBox="0 0 36 30" fill="none" xmlns="http://www.w3.org/2000/svg">
<path d="M16.3755 29.2361L8.38363 10.6211H0.556641L16.3755 29.2361Z" fill="#E2A400"/>
<path d="M16.3755 29.2361L8.38363 10.6211H0.556641L16.3755 29.2361Z" fill="url(#paint0_linear_34717_12778)"/>
<path d="M25.9544 9.39898L20.2581 0.851562H15.6547L9.9585 9.39898H25.9544Z" fill="#E2A400"/>
<path d="M25.9544 9.39898L20.2581 0.851562H15.6547L9.9585 9.39898H25.9544Z" fill="url(#paint1_linear_34717_12778)"/>
<path d="M26.1991 10.6211H9.71484L17.957 29.8284L26.1991 10.6211Z" fill="#E2A400"/>
<path d="M26.1991 10.6211H9.71484L17.957 29.8284L26.1991 10.6211Z" fill="url(#paint2_linear_34717_12778)"/>
<path d="M27.5298 10.6211L19.538 29.2361L35.3568 10.6211H27.5298Z" fill="#E2A400"/>
<path d="M27.5298 10.6211L19.538 29.2361L35.3568 10.6211H27.5298Z" fill="url(#paint3_linear_34717_12778)"/>
<path d="M8.4934 9.39898L14.1896 0.851562H7.38834C7.2951 0.851787 7.20315 0.873363 7.11954 0.914637C7.03594 0.955911 6.96289 1.01579 6.90602 1.08967L0.580933 9.39898H8.4934ZM27.4198 9.39898H35.3567L29.0072 1.08967C28.9503 1.01579 28.8773 0.955911 28.7937 0.914637C28.7101 0.873363 28.6181 0.851787 28.5249 0.851562H21.7236L27.4198 9.39898Z" fill="#E2A400"/>
<path d="M8.4934 9.39898L14.1896 0.851562H7.38834C7.2951 0.851787 7.20315 0.873363 7.11954 0.914637C7.03594 0.955911 6.96289 1.01579 6.90602 1.08967L0.580933 9.39898H8.4934ZM27.4198 9.39898H35.3567L29.0072 1.08967C28.9503 1.01579 28.8773 0.955911 28.7937 0.914637C28.7101 0.873363 28.6181 0.851787 28.5249 0.851562H21.7236L27.4198 9.39898Z" fill="url(#paint4_linear_34717_12778)"/>
<defs>
<linearGradient id="paint0_linear_34717_12778" x1="2.95471" y1="10.6211" x2="15.7944" y2="11.892" gradientUnits="userSpaceOnUse">
<stop stop-color="#FD9B2B"/>
<stop offset="1" stop-color="#F14F09"/>
</linearGradient>
<linearGradient id="paint1_linear_34717_12778" x1="12.3834" y1="0.851562" x2="24.8994" y2="3.57974" gradientUnits="userSpaceOnUse">
<stop stop-color="#FD9B2B"/>
<stop offset="1" stop-color="#F14F09"/>
</linearGradient>
<linearGradient id="paint2_linear_34717_12778" x1="12.2138" y1="10.6211" x2="25.5911" y2="11.9583" gradientUnits="userSpaceOnUse">
<stop stop-color="#FD9B2B"/>
<stop offset="1" stop-color="#F14F09"/>
</linearGradient>
<linearGradient id="paint3_linear_34717_12778" x1="21.936" y1="10.6211" x2="34.7758" y2="11.892" gradientUnits="userSpaceOnUse">
<stop stop-color="#FD9B2B"/>
<stop offset="1" stop-color="#F14F09"/>
</linearGradient>
<linearGradient id="paint4_linear_34717_12778" x1="5.85279" y1="0.851562" x2="29.1288" y2="11.8818" gradientUnits="userSpaceOnUse">
<stop stop-color="#FD9B2B"/>
<stop offset="1" stop-color="#F14F09"/>
</linearGradient>
</defs>
</svg>
