<svg width="20" height="20" viewBox="0 0 20 20" fill="none" xmlns="http://www.w3.org/2000/svg">
<path d="M8.70898 16.418C10.484 16.4176 12.2078 15.8234 13.606 14.73L18.002 19.126L19.416 17.712L15.02 13.316C16.114 11.9176 16.7086 10.1934 16.709 8.41797C16.709 4.00697 13.12 0.417969 8.70898 0.417969C4.29798 0.417969 0.708984 4.00697 0.708984 8.41797C0.708984 12.829 4.29798 16.418 8.70898 16.418ZM8.70898 2.41797C12.018 2.41797 14.709 5.10897 14.709 8.41797C14.709 11.727 12.018 14.418 8.70898 14.418C5.39998 14.418 2.70898 11.727 2.70898 8.41797C2.70898 5.10897 5.39998 2.41797 8.70898 2.41797Z" fill="black"/>
</svg>
