<svg width="53" height="56" viewBox="0 0 53 56" fill="none" xmlns="http://www.w3.org/2000/svg">
<path fill-rule="evenodd" clip-rule="evenodd" d="M29.4986 0.543887C22.025 2.56043 16.5097 8.76619 15.607 16.1743L15.3798 18.0394L13.4682 18.1496C12.2298 18.2211 11.5565 18.4221 11.5565 18.7205C11.5565 19.3392 18.9686 31.0933 19.4627 31.2586C19.8629 31.3921 27.1449 20.2052 27.4712 18.9565C27.6321 18.3386 27.4136 18.2481 25.525 18.15C23.9243 18.0668 23.3701 17.8953 23.2871 17.4572C23.0686 16.306 24.7108 12.7905 26.1716 11.2825C31.5854 5.69395 40.4973 7.01083 43.9375 13.9079C46.739 19.5249 44.2838 26.33 38.5201 28.9214C36.5171 29.8221 32.3857 29.964 30.4908 29.1968C29.7899 28.913 28.4769 28.1612 27.5728 27.5265C26.0424 26.4518 25.029 26.2388 25.029 26.9924C25.029 27.5994 27.0386 29.1917 29.0344 30.1657C30.7213 30.989 31.5246 31.144 34.1321 31.1495C37.8796 31.1572 40.478 30.123 42.9616 27.6348C45.5972 24.9941 46.3309 23.0622 46.3269 18.769C46.3243 15.6304 46.2027 14.8921 45.4551 13.4796C43.4288 9.65043 41.0464 7.72946 37.0516 6.70405C33.1165 5.69432 29.105 6.66647 26.1228 9.3524C23.9228 11.3343 22.6866 13.3395 21.9992 16.0419C21.5076 17.9745 21.4472 18.0431 20.1429 18.154C19.1077 18.2419 18.8218 18.4115 18.9114 18.8836C19.0072 19.3866 19.6032 19.5318 22.186 19.681L25.3433 19.8634L22.5461 24.3309C21.008 26.7881 19.664 28.7992 19.5595 28.7996C19.4554 28.8003 18.1052 26.7896 16.5599 24.332L13.7496 19.8634L15.1107 19.681C16.3633 19.5132 16.4951 19.3822 16.7584 18.0394C18.0404 11.505 19.1736 9.12878 22.4401 6.12513C32.7509 -3.35642 49.0971 2.46558 51.2833 16.3979C51.7614 19.4442 51.9289 19.7948 52.6837 19.3279C53.5205 18.8095 52.6003 13.8783 51.0575 10.6149C49.4987 7.31762 45.8393 3.49538 42.871 2.06432C38.6515 0.0302661 33.5509 -0.549745 29.4986 0.543887ZM33.4945 11.2358C33.3445 11.6403 32.6504 12.3568 31.9521 12.8277C29.5325 14.4605 29.5736 16.9502 32.0464 18.5567C33.3306 19.391 33.4038 19.542 33.4038 21.3623C33.4038 22.4202 33.2531 23.3792 33.0688 23.4934C32.6654 23.7429 31.2191 21.9864 31.2191 21.2466C31.2191 20.9395 30.9547 20.7768 30.5819 20.8541C29.1531 21.1507 30.5356 24.4057 32.3329 24.9773C32.6818 25.0882 33.0714 25.5942 33.1984 26.102C33.4857 27.2481 34.6262 27.1536 34.7948 25.9699C34.8585 25.5205 35.1618 25.1528 35.4684 25.1528C36.4078 25.1528 38.5015 22.7736 38.5015 21.7056C38.5015 20.1297 37.53 18.6775 36.1384 18.1733C34.8945 17.7228 34.8603 17.6582 34.8603 15.7646C34.8603 13.9713 34.9142 13.8477 35.5467 14.1866C35.9243 14.389 36.3368 14.9694 36.4639 15.4764C36.7126 16.4687 37.6713 16.724 37.9932 15.8835C38.3144 15.0453 37.1623 13.252 35.9905 12.7657C35.3628 12.5053 34.8545 11.9935 34.79 11.5575C34.6382 10.5307 33.8302 10.33 33.4945 11.2358ZM33.4038 15.6468C33.4038 17.3759 32.9985 17.725 32.1203 16.7525C31.5821 16.1568 31.5402 15.8704 31.8818 15.1197C32.5459 13.6591 33.4038 13.956 33.4038 15.6468ZM36.2025 20.1092C36.6656 20.5455 37.045 21.1507 37.045 21.4538C37.045 22.0452 35.6585 23.6936 35.1611 23.6936C34.9958 23.6936 34.8603 22.7087 34.8603 21.5049C34.8603 20.3011 34.9725 19.3162 35.1101 19.3162C35.2474 19.3162 35.7389 19.673 36.2025 20.1092ZM51.7534 21.657C51.4519 22.4439 51.871 23.4241 52.4295 23.2377C52.6797 23.1541 52.8843 22.7025 52.8843 22.2345C52.8843 21.2346 52.0734 20.8206 51.7534 21.657ZM51.6099 26.4295C51.6099 27.1525 51.7697 27.3641 52.2471 27.2722C52.5978 27.2043 52.8843 26.8253 52.8843 26.4295C52.8843 26.0337 52.5978 25.6547 52.2471 25.5869C51.7697 25.495 51.6099 25.7065 51.6099 26.4295ZM13.7216 34.7682C13.0097 35.0232 10.7554 36.4276 8.71163 37.8893L4.99614 40.5472L4.31304 39.702L3.62995 38.8571L2.1396 39.8916C0.1129 41.299 -0.319676 41.8542 0.202838 42.3777C0.510521 42.6859 0.960576 42.5455 1.97028 41.8257C2.71528 41.2946 3.35176 40.8966 3.38453 40.9408C5.04201 43.1652 11.6341 52.6544 11.7717 53.0138C11.886 53.3129 11.5059 53.8524 10.8516 54.3193C8.64864 55.8905 9.9999 56.7226 12.2505 55.1806C13.7139 54.1782 13.8301 53.8619 13.336 52.2291C13.2584 51.973 13.648 51.482 14.2019 51.138C15.1832 50.5281 15.4118 50.5646 23.3056 52.5961C28.4237 53.913 31.7372 54.5948 32.3122 54.4485C33.2545 54.2095 48.4795 43.6395 50.2401 42.0027C52.8046 39.6177 51.1092 35.3668 47.5933 35.3668C46.569 35.3668 45.4883 35.9217 42.5768 37.9422C40.5355 39.3591 38.8656 40.6774 38.8656 40.8722C38.8656 41.9381 40.2427 41.4289 43.3199 39.2241C47.1181 36.5031 48.2633 36.2755 49.534 37.9882C50.8463 39.757 50.1705 40.4768 41.377 46.6752C36.9649 49.785 32.9789 52.5282 32.5186 52.7712C31.809 53.1458 30.5036 52.912 23.8951 51.2267C19.6123 50.1345 15.7177 49.2379 15.2407 49.2346C14.7637 49.2313 13.853 49.5508 13.2173 49.9445L12.0616 50.6602L8.9159 46.2287L5.77062 41.7977L7.8443 40.2893C12.0506 37.2298 13.7616 36.15 14.7408 35.9366C16.1368 35.6328 34.0858 40.8773 34.7463 41.7823C35.8664 43.3166 34.8745 45.5809 33.0823 45.5809C32.6366 45.5809 30.2028 45.0855 27.6736 44.4799C24.5546 43.7332 22.9564 43.4987 22.7052 43.7504C22.0414 44.4154 22.9451 44.8268 27.5302 45.9486C33.1908 47.3333 34.1015 47.3373 35.5499 45.9818C37.0822 44.5478 37.135 42.4506 35.6796 40.8288C34.7937 39.8413 33.6077 39.4003 25.3931 37.0022C20.2863 35.5109 15.8623 34.2944 15.5619 34.298C15.2615 34.3016 14.4334 34.5132 13.7216 34.7682Z" fill="white"/>
</svg>
