<svg width="43" height="52" viewBox="0 0 43 52" fill="none" xmlns="http://www.w3.org/2000/svg">
<path fill-rule="evenodd" clip-rule="evenodd" d="M3.59837 0.0842608C2.5722 0.326148 1.77783 1.14695 1.5075 2.2449C1.16982 3.61658 1.83777 5.12755 3.03126 5.69169L3.46621 5.89723L3.47757 8.04998C3.48379 9.23397 3.49125 11.2907 3.49409 12.6204L3.49925 15.0381L3.68229 15.2371C3.86382 15.4345 3.87347 15.4364 4.85523 15.4592L5.84513 15.4823L5.83964 17.7175L5.83422 19.9527L4.89799 20.6215C3.2831 21.7753 0.702431 24.1412 0.290812 24.8452C-0.0875687 25.4926 -0.0971512 26.2478 0.264643 26.9189C0.668861 27.6687 3.43178 30.1885 5.16449 31.3875L5.83786 31.8535L5.84149 34.2014L5.84513 36.5493H4.88801H3.93089L3.71507 36.7586L3.49925 36.9678L3.49006 39.8951C3.48504 41.5051 3.47751 43.5643 3.47328 44.4712L3.46574 46.1201L3.17248 46.251C2.3869 46.6014 1.79151 47.2956 1.55058 48.1419C1.05365 49.8873 2.10778 51.7035 3.76562 51.9582C5.51043 52.2263 7.01899 50.7082 6.88551 48.8185C6.80231 47.6402 6.09148 46.606 5.10172 46.223L4.85391 46.1272V42.0552V37.9832H5.81718H6.78044L6.9736 37.7736L7.16675 37.564V35.2047C7.16675 33.907 7.1803 32.8306 7.19682 32.8127C7.21334 32.7948 7.68165 33.0245 8.2376 33.3233C10.0798 34.3135 12.1555 35.1581 14.0557 35.6905L14.8982 35.9266V37.4164V38.9062L13.2232 38.9286C11.8534 38.9469 11.5264 38.9706 11.4288 39.0585C11.1434 39.3156 11.1316 39.466 11.1314 42.8738L11.1312 46.1201L10.8379 46.251C10.3404 46.4729 9.93634 46.8094 9.63627 47.2516C8.61855 48.7514 9.06771 50.8354 10.5882 51.6682C12.413 52.6675 14.5663 51.236 14.5663 49.0237C14.5663 47.7792 13.8066 46.6007 12.7671 46.2326L12.5193 46.1449V43.2863V40.4277L14.1769 40.4063L15.8344 40.3848L16.0272 40.1507L16.2199 39.9165V38.1015C16.2199 37.1032 16.2353 36.2697 16.2542 36.2492C16.2731 36.2288 16.5184 36.2555 16.7993 36.3086C17.4072 36.4235 18.9431 36.603 19.9449 36.6761L20.6632 36.7285L20.6672 41.4079L20.6712 46.0871L20.2132 46.3254C19.4413 46.7269 18.9053 47.4184 18.6986 48.2795C18.2053 50.3345 19.8119 52.2674 21.762 51.965C22.6469 51.8279 23.3911 51.2313 23.8016 50.3301C24.0418 49.8028 24.0505 49.7576 24.0505 49.0274C24.0505 48.3281 24.0348 48.235 23.8431 47.7961C23.513 47.0403 22.9544 46.4762 22.2843 46.2219L22.0381 46.1284L22.02 43.4359C22.0101 41.9549 22.0098 39.8369 22.0195 38.7291L22.037 36.7149L22.9777 36.6675C23.495 36.6414 24.3049 36.5719 24.7774 36.513C25.2499 36.454 25.8086 36.3849 26.019 36.3595L26.4015 36.3132L26.3922 38.1073C26.3818 40.0963 26.399 40.1893 26.8071 40.3436C26.9298 40.3901 27.6239 40.4207 28.5538 40.4207H30.0969V43.2741V46.1277L29.783 46.2502C29.0868 46.522 28.45 47.2431 28.1838 48.0611C28.0572 48.4499 28.037 48.6308 28.0605 49.1629C28.085 49.7191 28.1195 49.8675 28.3339 50.3379C28.7348 51.2181 29.4303 51.7799 30.3404 51.9589C31.4697 52.181 32.7158 51.4828 33.2322 50.3386C33.9193 48.8162 33.3326 47.051 31.8976 46.323L31.4185 46.0799V42.7438C31.4185 40.4911 31.3953 39.3606 31.3472 39.2628C31.1982 38.961 30.925 38.9151 29.273 38.9151H27.718L27.7186 37.4634L27.7193 36.0116L28.7594 35.7344C30.5812 35.2489 32.5725 34.4685 34.3842 33.5301C34.9084 33.2586 35.3551 33.0364 35.3769 33.0364C35.3987 33.0364 35.4164 34.0554 35.4164 35.3007V37.5648L35.6323 37.774L35.8481 37.9832H36.8052H37.7623V42.0639V46.1446L37.5673 46.1911C37.2312 46.2711 36.5939 46.7748 36.2805 47.208C34.9979 48.9809 35.9651 51.6101 38.0285 51.9594C39.4923 52.2071 40.8644 51.1252 41.1393 49.5068C41.3557 48.2327 40.6923 46.8923 39.563 46.3219L39.0839 46.0799V41.5242V36.9684L38.8908 36.7589L38.6976 36.5493H37.7344H36.7711V34.3337V32.1181L37.085 31.9216C37.5167 31.6514 38.9584 30.5788 39.4804 30.1395C40.6573 29.1492 42.396 27.4765 42.6484 27.092C43.0228 26.5216 43.1072 25.7272 42.8582 25.1166C42.5239 24.2965 39.6584 21.6485 37.534 20.1965L36.7711 19.675V17.5787V15.4823L37.7682 15.4592L38.7653 15.4362L38.9246 15.235L39.0839 15.0338V10.4861V5.93845L39.5127 5.72754C40.6611 5.16261 41.357 3.79616 41.1417 2.52873C41.0323 1.88422 40.7833 1.34876 40.3934 0.918966C38.9553 -0.665991 36.5094 -0.0623481 35.842 2.04223C35.6118 2.76832 35.6975 3.83301 36.0344 4.43149C36.3942 5.07055 36.9399 5.57426 37.515 5.79794L37.7634 5.89458L37.7463 9.94845L37.7293 14.0023L36.7653 14.0221L35.8014 14.0419L35.6089 14.2598L35.4164 14.4776V16.6236C35.4164 17.8039 35.3984 18.7696 35.3764 18.7697C35.3543 18.7697 34.9677 18.5792 34.5173 18.3462C32.6281 17.3691 30.4536 16.5168 28.6266 16.0374L27.718 15.7991V14.4526V13.1062H29.1965C30.856 13.1062 31.0175 13.086 31.2524 12.8499L31.4185 12.6828V9.31068V5.93845L31.8491 5.7266C33.6194 4.85584 34.0762 2.40671 32.745 0.923984C31.3117 -0.672444 28.8928 -0.0799127 28.1827 2.04158C27.9719 2.67147 28.007 3.57227 28.266 4.17556C28.6004 4.95463 29.1555 5.53081 29.8019 5.76976L30.0969 5.8788V8.73973V11.6007H28.5538C27.5934 11.6007 26.9314 11.6307 26.8003 11.6802C26.4036 11.8303 26.3571 12.0662 26.3707 13.8589C26.3773 14.7264 26.3724 15.4545 26.3599 15.4769C26.3475 15.4992 25.9581 15.4605 25.4946 15.3907C24.7587 15.2799 23.2962 15.1456 22.2663 15.0942L21.9359 15.0777L21.9189 10.5086L21.9019 5.93946L22.3858 5.69033C23.4998 5.1168 24.1617 3.79918 23.9599 2.55662C23.7499 1.26309 22.853 0.276251 21.687 0.0559423C20.5085 -0.16666 19.2652 0.559361 18.7366 1.77891C18.5838 2.13156 18.5657 2.26039 18.5657 2.99766C18.5657 3.79272 18.5738 3.83954 18.7911 4.30933C19.0562 4.88258 19.5513 5.40872 20.0816 5.68094C20.2792 5.78238 20.4725 5.86533 20.511 5.86533C20.5598 5.86533 20.5812 7.27184 20.5812 10.4797V15.094L19.8708 15.1413C18.9869 15.2001 17.4003 15.3858 16.7663 15.5047C16.5035 15.5539 16.2731 15.5775 16.2542 15.557C16.2353 15.5365 16.2199 14.7514 16.2199 13.8123V12.1048L16.0272 11.8706L15.8344 11.6365L14.1769 11.6151L12.5193 11.5936V8.73507V5.87644L12.7671 5.78919C13.3378 5.58831 13.9895 4.95355 14.3049 4.29141C14.449 3.98894 14.5663 3.40824 14.5663 2.99766C14.5663 2.19199 14.2848 1.46224 13.7511 0.88398C12.2612 -0.730227 9.71947 0.0253303 9.17291 2.2449C8.82083 3.67501 9.55968 5.23351 10.8415 5.7646L11.1316 5.88483V9.13934C11.1316 12.783 11.1346 12.8099 11.5567 13.0012C11.7376 13.0833 12.1275 13.1062 13.3432 13.1062H14.8982V14.5014V15.8966L14.6174 15.9733C13.5694 16.2597 13.1754 16.3808 12.3541 16.669C10.9648 17.1565 9.70896 17.7093 8.42229 18.3996C7.78626 18.7408 7.2436 19.0309 7.21631 19.0442C7.18902 19.0576 7.16675 18.031 7.16675 16.7629V14.4573L6.9736 14.2477L6.78044 14.0382H5.81718H4.85391V9.96494V5.89171L5.21465 5.72947C6.00346 5.37481 6.57889 4.65983 6.80502 3.75336C7.2105 2.12819 6.2617 0.441787 4.7458 0.0933655C4.21332 -0.029012 4.08354 -0.0300873 3.59837 0.0842608ZM4.78406 1.63344C5.74079 2.16296 5.81949 3.57127 4.93024 4.24925C4.6747 4.44418 4.59283 4.46734 4.16006 4.46734C3.72729 4.46734 3.64542 4.44418 3.38929 4.24911C2.46191 3.54266 2.61898 2.02545 3.66643 1.57193C3.94933 1.44941 4.50705 1.4801 4.78406 1.63344ZM12.4249 1.62785C12.9891 1.90587 13.3453 2.69613 13.1879 3.32063C13.0807 3.74555 12.8885 4.04321 12.5763 4.26732C12.3358 4.43995 12.2322 4.46734 11.8195 4.46734C11.3934 4.46734 11.31 4.44354 11.0553 4.24925C10.3437 3.70676 10.2235 2.70939 10.7826 1.98839C11.1568 1.50598 11.8629 1.35091 12.4249 1.62785ZM22.0436 1.74521C22.463 2.06567 22.6455 2.49009 22.6166 3.0781C22.5868 3.68683 22.3665 4.05985 21.8824 4.32159C21.1463 4.71955 20.3223 4.41013 19.9796 3.60704C19.6692 2.87952 19.9511 2.04417 20.6473 1.62864C21.0115 1.41127 21.6796 1.46705 22.0436 1.74521ZM31.5612 1.74622C32.0388 2.11041 32.2572 2.70538 32.1341 3.3073C31.8853 4.52469 30.4785 4.91599 29.72 3.97869C29.1241 3.24242 29.3334 2.1165 30.1564 1.63094C30.5291 1.41106 31.1931 1.46554 31.5612 1.74622ZM39.0901 1.65753C39.2713 1.76048 39.4648 1.9567 39.6023 2.1773C39.8101 2.51045 39.8219 2.56207 39.7998 3.03996C39.7698 3.68891 39.563 4.06063 39.0858 4.32288C37.9098 4.96947 36.6146 3.66791 37.1607 2.38828C37.5018 1.589 38.3822 1.25556 39.0901 1.65753ZM22.6628 17.011C24.5421 17.3843 26.0324 18.2622 27.332 19.7616C28.2002 20.7633 28.9051 22.1155 29.2662 23.4722C29.4865 24.2999 29.5011 24.4097 29.5476 25.588C29.6434 28.0184 28.854 30.2959 27.2949 32.0878C23.4929 36.4572 16.961 35.6822 14.1027 30.5226C13.8343 30.0382 13.6579 29.6304 13.3446 28.7708C13.271 28.5688 13.2687 28.5598 13.1062 27.8029C12.9064 26.873 12.8908 25.1284 13.0736 24.1825C13.4273 22.3525 14.1695 20.8497 15.3592 19.5541C16.5642 18.2419 17.9392 17.4371 19.6413 17.0478C20.3746 16.88 21.9093 16.8614 22.6628 17.011ZM27.4383 17.2302C29.8932 17.8032 32.0712 18.643 34.3261 19.886C36.6672 21.1767 38.7051 22.7108 40.6829 24.6716C41.9119 25.8901 41.9069 25.8612 41.0475 26.7634C37.7215 30.2553 33.3403 32.9151 28.7753 34.2135C27.7812 34.4963 26.5876 34.7734 26.5481 34.7305C26.534 34.7152 26.7245 34.5476 26.9715 34.3581C27.5696 33.8994 28.6501 32.7069 29.1276 31.9788C29.844 30.8862 30.3992 29.5315 30.7064 28.1264C30.8661 27.3958 30.9295 25.6614 30.8334 24.6485C30.5687 21.8559 29.0355 19.031 26.8981 17.3979C26.6471 17.2061 26.4915 17.0492 26.5523 17.0492C26.6132 17.0492 27.0118 17.1307 27.4383 17.2302ZM15.3872 17.5647C13.9194 18.763 12.6724 20.6592 12.096 22.5695C11.6934 23.9034 11.627 24.3827 11.6289 25.939C11.6309 27.4722 11.6992 27.9748 12.0706 29.1877C12.6967 31.2325 13.8201 32.9241 15.4795 34.3204C15.6356 34.4518 15.7516 34.572 15.7373 34.5876C15.7229 34.6032 15.2234 34.4833 14.6274 34.3213C9.81224 33.0121 5.46285 30.4087 1.89678 26.701C1.17577 25.9514 1.1724 25.8739 1.8307 25.178C4.82609 22.0117 8.64684 19.5034 12.6184 18.0958C13.5687 17.7591 15.4939 17.1995 15.7176 17.1951C15.7966 17.1935 15.6742 17.3305 15.3872 17.5647ZM20.2839 20.1666C18.2932 20.5684 16.7188 22.1022 16.0879 24.2542C15.8896 24.9308 15.8343 26.3312 15.9771 27.0599C16.2802 28.6058 17.2411 30.105 18.4216 30.8737C19.6628 31.682 21.2708 31.9472 22.5967 31.5623C24.2371 31.0861 25.6615 29.7102 26.2552 28.0283C26.5244 27.2656 26.6138 26.7361 26.6138 25.9031C26.6138 25.0701 26.5244 24.5406 26.2552 23.7779C25.3501 21.214 22.7838 19.6619 20.2839 20.1666ZM22.4312 21.7227C24.0848 22.2666 25.273 24.0153 25.273 25.9051C25.273 27.5798 24.3785 29.1244 22.9932 29.8419C22.3868 30.1559 21.928 30.2674 21.242 30.2674C20.5515 30.2674 20.1017 30.1552 19.4578 29.8226C18.7693 29.4668 17.9889 28.6258 17.6501 27.8746C16.8677 26.1398 17.1562 24.2002 18.3972 22.8517C18.9168 22.2871 19.2636 22.0402 19.9001 21.7819C20.6687 21.4699 21.5966 21.4481 22.4312 21.7227ZM4.75948 47.6538C5.22588 47.8837 5.58193 48.4971 5.58014 49.0678C5.57922 49.368 5.30188 49.9675 5.06326 50.1854C4.40211 50.789 3.36563 50.5703 2.93928 49.7374C2.54081 48.959 2.88899 47.9345 3.66643 47.5979C3.93162 47.4831 4.46866 47.5105 4.75948 47.6538ZM12.3718 47.6291C13.3759 48.0842 13.5077 49.5808 12.6042 50.2689C12.2802 50.5158 11.7528 50.5971 11.3687 50.4596C10.1927 50.0385 10.1237 48.1689 11.2642 47.6323C11.5648 47.4909 12.0638 47.4895 12.3718 47.6291ZM21.9365 47.6518C22.7916 48.0733 23.017 49.224 22.398 50.0085C21.6523 50.9536 20.2402 50.5546 19.9815 49.3257C19.7939 48.4346 20.4826 47.5157 21.335 47.5197C21.5201 47.5206 21.7908 47.58 21.9365 47.6518ZM31.5393 47.7524C32.1457 48.1877 32.3461 49.1055 31.9819 49.7797C31.505 50.6626 30.3747 50.788 29.742 50.0282C29.1038 49.2617 29.3255 48.1003 30.196 47.6501C30.5817 47.4507 31.1828 47.4964 31.5393 47.7524ZM39.0858 47.6984C39.563 47.9607 39.7698 48.3324 39.7998 48.9814C39.8219 49.4593 39.8101 49.5109 39.6023 49.844C38.9767 50.8471 37.6291 50.7307 37.1607 49.633C36.6134 48.3507 37.9073 47.0505 39.0858 47.6984Z" fill="black"/>
<path fill-rule="evenodd" clip-rule="evenodd" d="M3.59837 0.0842608C2.5722 0.326148 1.77783 1.14695 1.5075 2.2449C1.16982 3.61658 1.83777 5.12755 3.03126 5.69169L3.46621 5.89723L3.47757 8.04998C3.48379 9.23397 3.49125 11.2907 3.49409 12.6204L3.49925 15.0381L3.68229 15.2371C3.86382 15.4345 3.87347 15.4364 4.85523 15.4592L5.84513 15.4823L5.83964 17.7175L5.83422 19.9527L4.89799 20.6215C3.2831 21.7753 0.702431 24.1412 0.290812 24.8452C-0.0875687 25.4926 -0.0971512 26.2478 0.264643 26.9189C0.668861 27.6687 3.43178 30.1885 5.16449 31.3875L5.83786 31.8535L5.84149 34.2014L5.84513 36.5493H4.88801H3.93089L3.71507 36.7586L3.49925 36.9678L3.49006 39.8951C3.48504 41.5051 3.47751 43.5643 3.47328 44.4712L3.46574 46.1201L3.17248 46.251C2.3869 46.6014 1.79151 47.2956 1.55058 48.1419C1.05365 49.8873 2.10778 51.7035 3.76562 51.9582C5.51043 52.2263 7.01899 50.7082 6.88551 48.8185C6.80231 47.6402 6.09148 46.606 5.10172 46.223L4.85391 46.1272V42.0552V37.9832H5.81718H6.78044L6.9736 37.7736L7.16675 37.564V35.2047C7.16675 33.907 7.1803 32.8306 7.19682 32.8127C7.21334 32.7948 7.68165 33.0245 8.2376 33.3233C10.0798 34.3135 12.1555 35.1581 14.0557 35.6905L14.8982 35.9266V37.4164V38.9062L13.2232 38.9286C11.8534 38.9469 11.5264 38.9706 11.4288 39.0585C11.1434 39.3156 11.1316 39.466 11.1314 42.8738L11.1312 46.1201L10.8379 46.251C10.3404 46.4729 9.93634 46.8094 9.63627 47.2516C8.61855 48.7514 9.06771 50.8354 10.5882 51.6682C12.413 52.6675 14.5663 51.236 14.5663 49.0237C14.5663 47.7792 13.8066 46.6007 12.7671 46.2326L12.5193 46.1449V43.2863V40.4277L14.1769 40.4063L15.8344 40.3848L16.0272 40.1507L16.2199 39.9165V38.1015C16.2199 37.1032 16.2353 36.2697 16.2542 36.2492C16.2731 36.2288 16.5184 36.2555 16.7993 36.3086C17.4072 36.4235 18.9431 36.603 19.9449 36.6761L20.6632 36.7285L20.6672 41.4079L20.6712 46.0871L20.2132 46.3254C19.4413 46.7269 18.9053 47.4184 18.6986 48.2795C18.2053 50.3345 19.8119 52.2674 21.762 51.965C22.6469 51.8279 23.3911 51.2313 23.8016 50.3301C24.0418 49.8028 24.0505 49.7576 24.0505 49.0274C24.0505 48.3281 24.0348 48.235 23.8431 47.7961C23.513 47.0403 22.9544 46.4762 22.2843 46.2219L22.0381 46.1284L22.02 43.4359C22.0101 41.9549 22.0098 39.8369 22.0195 38.7291L22.037 36.7149L22.9777 36.6675C23.495 36.6414 24.3049 36.5719 24.7774 36.513C25.2499 36.454 25.8086 36.3849 26.019 36.3595L26.4015 36.3132L26.3922 38.1073C26.3818 40.0963 26.399 40.1893 26.8071 40.3436C26.9298 40.3901 27.6239 40.4207 28.5538 40.4207H30.0969V43.2741V46.1277L29.783 46.2502C29.0868 46.522 28.45 47.2431 28.1838 48.0611C28.0572 48.4499 28.037 48.6308 28.0605 49.1629C28.085 49.7191 28.1195 49.8675 28.3339 50.3379C28.7348 51.2181 29.4303 51.7799 30.3404 51.9589C31.4697 52.181 32.7158 51.4828 33.2322 50.3386C33.9193 48.8162 33.3326 47.051 31.8976 46.323L31.4185 46.0799V42.7438C31.4185 40.4911 31.3953 39.3606 31.3472 39.2628C31.1982 38.961 30.925 38.9151 29.273 38.9151H27.718L27.7186 37.4634L27.7193 36.0116L28.7594 35.7344C30.5812 35.2489 32.5725 34.4685 34.3842 33.5301C34.9084 33.2586 35.3551 33.0364 35.3769 33.0364C35.3987 33.0364 35.4164 34.0554 35.4164 35.3007V37.5648L35.6323 37.774L35.8481 37.9832H36.8052H37.7623V42.0639V46.1446L37.5673 46.1911C37.2312 46.2711 36.5939 46.7748 36.2805 47.208C34.9979 48.9809 35.9651 51.6101 38.0285 51.9594C39.4923 52.2071 40.8644 51.1252 41.1393 49.5068C41.3557 48.2327 40.6923 46.8923 39.563 46.3219L39.0839 46.0799V41.5242V36.9684L38.8908 36.7589L38.6976 36.5493H37.7344H36.7711V34.3337V32.1181L37.085 31.9216C37.5167 31.6514 38.9584 30.5788 39.4804 30.1395C40.6573 29.1492 42.396 27.4765 42.6484 27.092C43.0228 26.5216 43.1072 25.7272 42.8582 25.1166C42.5239 24.2965 39.6584 21.6485 37.534 20.1965L36.7711 19.675V17.5787V15.4823L37.7682 15.4592L38.7653 15.4362L38.9246 15.235L39.0839 15.0338V10.4861V5.93845L39.5127 5.72754C40.6611 5.16261 41.357 3.79616 41.1417 2.52873C41.0323 1.88422 40.7833 1.34876 40.3934 0.918966C38.9553 -0.665991 36.5094 -0.0623481 35.842 2.04223C35.6118 2.76832 35.6975 3.83301 36.0344 4.43149C36.3942 5.07055 36.9399 5.57426 37.515 5.79794L37.7634 5.89458L37.7463 9.94845L37.7293 14.0023L36.7653 14.0221L35.8014 14.0419L35.6089 14.2598L35.4164 14.4776V16.6236C35.4164 17.8039 35.3984 18.7696 35.3764 18.7697C35.3543 18.7697 34.9677 18.5792 34.5173 18.3462C32.6281 17.3691 30.4536 16.5168 28.6266 16.0374L27.718 15.7991V14.4526V13.1062H29.1965C30.856 13.1062 31.0175 13.086 31.2524 12.8499L31.4185 12.6828V9.31068V5.93845L31.8491 5.7266C33.6194 4.85584 34.0762 2.40671 32.745 0.923984C31.3117 -0.672444 28.8928 -0.0799127 28.1827 2.04158C27.9719 2.67147 28.007 3.57227 28.266 4.17556C28.6004 4.95463 29.1555 5.53081 29.8019 5.76976L30.0969 5.8788V8.73973V11.6007H28.5538C27.5934 11.6007 26.9314 11.6307 26.8003 11.6802C26.4036 11.8303 26.3571 12.0662 26.3707 13.8589C26.3773 14.7264 26.3724 15.4545 26.3599 15.4769C26.3475 15.4992 25.9581 15.4605 25.4946 15.3907C24.7587 15.2799 23.2962 15.1456 22.2663 15.0942L21.9359 15.0777L21.9189 10.5086L21.9019 5.93946L22.3858 5.69033C23.4998 5.1168 24.1617 3.79918 23.9599 2.55662C23.7499 1.26309 22.853 0.276251 21.687 0.0559423C20.5085 -0.16666 19.2652 0.559361 18.7366 1.77891C18.5838 2.13156 18.5657 2.26039 18.5657 2.99766C18.5657 3.79272 18.5738 3.83954 18.7911 4.30933C19.0562 4.88258 19.5513 5.40872 20.0816 5.68094C20.2792 5.78238 20.4725 5.86533 20.511 5.86533C20.5598 5.86533 20.5812 7.27184 20.5812 10.4797V15.094L19.8708 15.1413C18.9869 15.2001 17.4003 15.3858 16.7663 15.5047C16.5035 15.5539 16.2731 15.5775 16.2542 15.557C16.2353 15.5365 16.2199 14.7514 16.2199 13.8123V12.1048L16.0272 11.8706L15.8344 11.6365L14.1769 11.6151L12.5193 11.5936V8.73507V5.87644L12.7671 5.78919C13.3378 5.58831 13.9895 4.95355 14.3049 4.29141C14.449 3.98894 14.5663 3.40824 14.5663 2.99766C14.5663 2.19199 14.2848 1.46224 13.7511 0.88398C12.2612 -0.730227 9.71947 0.0253303 9.17291 2.2449C8.82083 3.67501 9.55968 5.23351 10.8415 5.7646L11.1316 5.88483V9.13934C11.1316 12.783 11.1346 12.8099 11.5567 13.0012C11.7376 13.0833 12.1275 13.1062 13.3432 13.1062H14.8982V14.5014V15.8966L14.6174 15.9733C13.5694 16.2597 13.1754 16.3808 12.3541 16.669C10.9648 17.1565 9.70896 17.7093 8.42229 18.3996C7.78626 18.7408 7.2436 19.0309 7.21631 19.0442C7.18902 19.0576 7.16675 18.031 7.16675 16.7629V14.4573L6.9736 14.2477L6.78044 14.0382H5.81718H4.85391V9.96494V5.89171L5.21465 5.72947C6.00346 5.37481 6.57889 4.65983 6.80502 3.75336C7.2105 2.12819 6.2617 0.441787 4.7458 0.0933655C4.21332 -0.029012 4.08354 -0.0300873 3.59837 0.0842608ZM4.78406 1.63344C5.74079 2.16296 5.81949 3.57127 4.93024 4.24925C4.6747 4.44418 4.59283 4.46734 4.16006 4.46734C3.72729 4.46734 3.64542 4.44418 3.38929 4.24911C2.46191 3.54266 2.61898 2.02545 3.66643 1.57193C3.94933 1.44941 4.50705 1.4801 4.78406 1.63344ZM12.4249 1.62785C12.9891 1.90587 13.3453 2.69613 13.1879 3.32063C13.0807 3.74555 12.8885 4.04321 12.5763 4.26732C12.3358 4.43995 12.2322 4.46734 11.8195 4.46734C11.3934 4.46734 11.31 4.44354 11.0553 4.24925C10.3437 3.70676 10.2235 2.70939 10.7826 1.98839C11.1568 1.50598 11.8629 1.35091 12.4249 1.62785ZM22.0436 1.74521C22.463 2.06567 22.6455 2.49009 22.6166 3.0781C22.5868 3.68683 22.3665 4.05985 21.8824 4.32159C21.1463 4.71955 20.3223 4.41013 19.9796 3.60704C19.6692 2.87952 19.9511 2.04417 20.6473 1.62864C21.0115 1.41127 21.6796 1.46705 22.0436 1.74521ZM31.5612 1.74622C32.0388 2.11041 32.2572 2.70538 32.1341 3.3073C31.8853 4.52469 30.4785 4.91599 29.72 3.97869C29.1241 3.24242 29.3334 2.1165 30.1564 1.63094C30.5291 1.41106 31.1931 1.46554 31.5612 1.74622ZM39.0901 1.65753C39.2713 1.76048 39.4648 1.9567 39.6023 2.1773C39.8101 2.51045 39.8219 2.56207 39.7998 3.03996C39.7698 3.68891 39.563 4.06063 39.0858 4.32288C37.9098 4.96947 36.6146 3.66791 37.1607 2.38828C37.5018 1.589 38.3822 1.25556 39.0901 1.65753ZM22.6628 17.011C24.5421 17.3843 26.0324 18.2622 27.332 19.7616C28.2002 20.7633 28.9051 22.1155 29.2662 23.4722C29.4865 24.2999 29.5011 24.4097 29.5476 25.588C29.6434 28.0184 28.854 30.2959 27.2949 32.0878C23.4929 36.4572 16.961 35.6822 14.1027 30.5226C13.8343 30.0382 13.6579 29.6304 13.3446 28.7708C13.271 28.5688 13.2687 28.5598 13.1062 27.8029C12.9064 26.873 12.8908 25.1284 13.0736 24.1825C13.4273 22.3525 14.1695 20.8497 15.3592 19.5541C16.5642 18.2419 17.9392 17.4371 19.6413 17.0478C20.3746 16.88 21.9093 16.8614 22.6628 17.011ZM27.4383 17.2302C29.8932 17.8032 32.0712 18.643 34.3261 19.886C36.6672 21.1767 38.7051 22.7108 40.6829 24.6716C41.9119 25.8901 41.9069 25.8612 41.0475 26.7634C37.7215 30.2553 33.3403 32.9151 28.7753 34.2135C27.7812 34.4963 26.5876 34.7734 26.5481 34.7305C26.534 34.7152 26.7245 34.5476 26.9715 34.3581C27.5696 33.8994 28.6501 32.7069 29.1276 31.9788C29.844 30.8862 30.3992 29.5315 30.7064 28.1264C30.8661 27.3958 30.9295 25.6614 30.8334 24.6485C30.5687 21.8559 29.0355 19.031 26.8981 17.3979C26.6471 17.2061 26.4915 17.0492 26.5523 17.0492C26.6132 17.0492 27.0118 17.1307 27.4383 17.2302ZM15.3872 17.5647C13.9194 18.763 12.6724 20.6592 12.096 22.5695C11.6934 23.9034 11.627 24.3827 11.6289 25.939C11.6309 27.4722 11.6992 27.9748 12.0706 29.1877C12.6967 31.2325 13.8201 32.9241 15.4795 34.3204C15.6356 34.4518 15.7516 34.572 15.7373 34.5876C15.7229 34.6032 15.2234 34.4833 14.6274 34.3213C9.81224 33.0121 5.46285 30.4087 1.89678 26.701C1.17577 25.9514 1.1724 25.8739 1.8307 25.178C4.82609 22.0117 8.64684 19.5034 12.6184 18.0958C13.5687 17.7591 15.4939 17.1995 15.7176 17.1951C15.7966 17.1935 15.6742 17.3305 15.3872 17.5647ZM20.2839 20.1666C18.2932 20.5684 16.7188 22.1022 16.0879 24.2542C15.8896 24.9308 15.8343 26.3312 15.9771 27.0599C16.2802 28.6058 17.2411 30.105 18.4216 30.8737C19.6628 31.682 21.2708 31.9472 22.5967 31.5623C24.2371 31.0861 25.6615 29.7102 26.2552 28.0283C26.5244 27.2656 26.6138 26.7361 26.6138 25.9031C26.6138 25.0701 26.5244 24.5406 26.2552 23.7779C25.3501 21.214 22.7838 19.6619 20.2839 20.1666ZM22.4312 21.7227C24.0848 22.2666 25.273 24.0153 25.273 25.9051C25.273 27.5798 24.3785 29.1244 22.9932 29.8419C22.3868 30.1559 21.928 30.2674 21.242 30.2674C20.5515 30.2674 20.1017 30.1552 19.4578 29.8226C18.7693 29.4668 17.9889 28.6258 17.6501 27.8746C16.8677 26.1398 17.1562 24.2002 18.3972 22.8517C18.9168 22.2871 19.2636 22.0402 19.9001 21.7819C20.6687 21.4699 21.5966 21.4481 22.4312 21.7227ZM4.75948 47.6538C5.22588 47.8837 5.58193 48.4971 5.58014 49.0678C5.57922 49.368 5.30188 49.9675 5.06326 50.1854C4.40211 50.789 3.36563 50.5703 2.93928 49.7374C2.54081 48.959 2.88899 47.9345 3.66643 47.5979C3.93162 47.4831 4.46866 47.5105 4.75948 47.6538ZM12.3718 47.6291C13.3759 48.0842 13.5077 49.5808 12.6042 50.2689C12.2802 50.5158 11.7528 50.5971 11.3687 50.4596C10.1927 50.0385 10.1237 48.1689 11.2642 47.6323C11.5648 47.4909 12.0638 47.4895 12.3718 47.6291ZM21.9365 47.6518C22.7916 48.0733 23.017 49.224 22.398 50.0085C21.6523 50.9536 20.2402 50.5546 19.9815 49.3257C19.7939 48.4346 20.4826 47.5157 21.335 47.5197C21.5201 47.5206 21.7908 47.58 21.9365 47.6518ZM31.5393 47.7524C32.1457 48.1877 32.3461 49.1055 31.9819 49.7797C31.505 50.6626 30.3747 50.788 29.742 50.0282C29.1038 49.2617 29.3255 48.1003 30.196 47.6501C30.5817 47.4507 31.1828 47.4964 31.5393 47.7524ZM39.0858 47.6984C39.563 47.9607 39.7698 48.3324 39.7998 48.9814C39.8219 49.4593 39.8101 49.5109 39.6023 49.844C38.9767 50.8471 37.6291 50.7307 37.1607 49.633C36.6134 48.3507 37.9073 47.0505 39.0858 47.6984Z" fill="url(#paint0_linear_34717_12224)"/>
<defs>
<linearGradient id="paint0_linear_34717_12224" x1="1.60187e-07" y1="26" x2="43" y2="26" gradientUnits="userSpaceOnUse">
<stop stop-color="#F7608C"/>
<stop offset="1" stop-color="#F8AC58"/>
</linearGradient>
</defs>
</svg>
