<svg width="61" height="55" viewBox="0 0 61 55" fill="none" xmlns="http://www.w3.org/2000/svg">
<path fill-rule="evenodd" clip-rule="evenodd" d="M19.6604 0.108651C18.7364 0.223514 17.2586 0.63164 16.4007 1.00897C15.3968 1.45048 13.9727 2.44805 13.0833 3.33259C11.2042 5.20141 10.1018 7.52039 9.83017 10.1753C9.27922 15.5625 12.7007 20.5342 18.0307 22.0911C19.3476 22.4758 21.6891 22.5761 23.1143 22.3088C25.0538 21.945 26.7525 21.1541 28.2368 19.9236C30.0742 18.4005 31.2431 16.6324 31.9518 14.3042C32.2265 13.4021 32.2484 13.187 32.2555 11.3327C32.2623 9.56102 32.2344 9.22918 32.0105 8.4152C30.9416 4.53039 27.8859 1.46421 24.048 0.425362C23.1971 0.194988 21.579 -0.0198266 20.8556 0.0014603C20.6165 0.0084839 20.0787 0.0566767 19.6604 0.108651ZM22.8831 1.54384C26.0029 2.13966 28.7293 4.23518 30.0406 7.04527C32.8277 13.0186 29.2066 19.8699 22.6612 21.0074C20.9864 21.2985 19.6548 21.1854 17.8827 20.6013C14.7885 19.5813 12.358 17.0153 11.4574 13.818C11.1611 12.7662 11.0559 10.8596 11.2337 9.76384C11.8982 5.66692 15.0629 2.39456 19.1715 1.55605C20.1189 1.36264 21.9038 1.3568 22.8831 1.54384ZM39.8977 9.93565C39.7806 10.0035 39.5206 10.6355 39.21 11.6073L38.7107 13.1696H37.0353C35.4888 13.1696 35.3428 13.1867 35.1362 13.3921C34.9844 13.5432 34.9233 13.7228 34.9461 13.9515C34.9752 14.2434 35.1441 14.4068 36.2111 15.1753C36.8884 15.663 37.4926 16.1119 37.5539 16.1728C37.6298 16.2484 37.5035 16.7892 37.1559 17.8771L36.6466 19.4706L36.856 19.7509C37.2269 20.2472 37.4763 20.174 38.891 19.1541C39.608 18.6371 40.2436 18.2141 40.3034 18.2141C40.3631 18.2141 40.9987 18.6371 41.7158 19.1541C43.1308 20.1743 43.3798 20.2473 43.7512 19.7502L43.9612 19.4693L43.4536 17.8742C43.114 16.8066 42.9822 16.2432 43.0552 16.1706C43.1152 16.1109 43.7184 15.663 44.3957 15.1753C45.4627 14.4068 45.6315 14.2434 45.6607 13.9515C45.6835 13.7228 45.6224 13.5432 45.4705 13.3921C45.264 13.1867 45.118 13.1696 43.5715 13.1696H41.896L41.3962 11.6054C40.8927 10.0301 40.7586 9.81527 40.2834 9.82316C40.1749 9.825 40.0013 9.87557 39.8977 9.93565ZM52.0724 10.009C51.9834 10.1131 51.6981 10.8668 51.4381 11.6839L50.9655 13.1696H49.3254C47.604 13.1696 47.2935 13.244 47.1779 13.6837C47.0742 14.0783 47.3208 14.3523 48.6068 15.271C49.3284 15.7864 49.9186 16.2378 49.9186 16.274C49.9186 16.3102 49.6986 17.0093 49.4297 17.8276C49.1608 18.6459 48.9408 19.3914 48.9408 19.4842C48.9408 19.7347 49.3396 20.0852 49.6244 20.0852C49.7656 20.0852 50.4551 19.6658 51.2163 19.117L52.5593 18.1489L52.8958 18.3856C53.0809 18.5158 53.6903 18.9515 54.2501 19.3538C54.8098 19.7561 55.349 20.0852 55.4482 20.0852C55.789 20.0852 56.1115 19.7646 56.1115 19.4262C56.1115 19.2486 55.9122 18.4941 55.6685 17.7491C55.4249 17.0042 55.2492 16.3334 55.2781 16.2584C55.307 16.1834 55.8357 15.7617 56.453 15.3212C57.0702 14.8807 57.6615 14.4353 57.7669 14.3312C58.0214 14.0801 58.0098 13.6529 57.7412 13.3857C57.5427 13.1883 57.3791 13.1696 55.8459 13.1696H54.1678L53.6656 11.6298C53.3893 10.7829 53.0839 10.0293 52.9868 9.95499C52.7334 9.76081 52.2605 9.78869 52.0724 10.009ZM40.63 13.6019C40.922 14.5141 41.0082 14.5744 42.0202 14.5744H42.8886L42.1935 15.0896C41.7777 15.3977 41.4849 15.6987 41.4647 15.8387C41.4461 15.9674 41.5317 16.3971 41.6548 16.7937C41.7781 17.1902 41.8788 17.5337 41.8788 17.557C41.8788 17.5804 41.58 17.3808 41.2149 17.1134C40.8498 16.8461 40.4396 16.6274 40.3034 16.6274C40.1671 16.6274 39.7497 16.8514 39.3758 17.1252C38.9826 17.4131 38.7254 17.5464 38.7658 17.4415C38.9698 16.9128 39.1903 15.8826 39.1318 15.7311C39.0949 15.6354 38.7592 15.336 38.3858 15.0658L37.7067 14.5744H38.5808C39.599 14.5744 39.6838 14.5154 39.978 13.6019C40.0833 13.275 40.1928 12.9668 40.2215 12.9171C40.3069 12.7689 40.4284 12.9725 40.63 13.6019ZM52.8408 13.5109C53.1788 14.5062 53.2715 14.5744 54.2877 14.5744H55.1462L54.461 15.0883C53.584 15.7459 53.5584 15.9324 54.1342 17.4782C54.1646 17.5599 53.8788 17.4018 53.499 17.1271C53.1193 16.8523 52.7041 16.6274 52.5765 16.6274C52.4487 16.6274 52.0642 16.8269 51.722 17.0707C51.3796 17.3144 51.0787 17.493 51.0531 17.4675C51.0275 17.4422 51.109 17.1197 51.2341 16.7511C51.3655 16.3643 51.4335 15.9694 51.3951 15.8167C51.3549 15.6574 51.0661 15.3688 50.6682 15.0904L50.0082 14.6284L50.8708 14.5744C51.3453 14.5446 51.8062 14.4601 51.8949 14.3866C51.9837 14.313 52.118 14.0483 52.1933 13.7986C52.3786 13.183 52.5113 12.8455 52.5678 12.8455C52.5938 12.8455 52.7165 13.1449 52.8408 13.5109ZM42.278 21.5963C38.5725 22.0631 35.2717 23.5979 32.6861 26.0563L31.6629 27.0293L31.0397 26.7019C29.4729 25.8789 27.0696 25.0262 25.3644 24.6884C23.213 24.2621 20.3687 24.173 18.1476 24.4626C13.7497 25.036 9.54812 27.0577 6.25286 30.1859C3.27669 33.0113 1.25596 36.4568 0.254887 40.4125C-0.0304201 41.5399 -0.0526929 41.7339 0.0726858 41.9941L0.215555 42.2906L14.0046 42.3446L27.7937 42.3986L28.1876 43.5332C30.3094 49.6441 35.4786 53.9508 41.8061 54.8797C42.8972 55.0398 45.3674 55.0402 46.5415 54.8803C49.9616 54.4145 53.2465 52.8207 55.7748 50.4001C57.0474 49.1818 57.8965 48.132 58.6803 46.8073C60.3006 44.0692 60.9987 41.4857 61 38.2222C61.0012 35.3929 60.417 32.9899 59.1388 30.5666C58.2646 28.9091 57.4737 27.8316 56.1659 26.5159C53.6074 23.9424 50.6266 22.3763 47.0952 21.7504C45.9804 21.5528 43.3032 21.4672 42.278 21.5963ZM47.8856 23.3112C50.1753 23.9158 51.7316 24.6578 53.5204 25.9973C56.5552 28.2701 58.5583 31.4551 59.3838 35.321C59.7048 36.824 59.7321 39.5377 59.4408 40.99C58.806 44.1557 57.3542 46.9162 55.1836 49.0852C53.1272 51.14 50.8517 52.4497 48.126 53.1478C39.0343 55.4757 30.0743 49.4713 28.8319 40.218C28.6716 39.0244 28.7658 36.3241 29.0065 35.213C29.8857 31.1532 32.215 27.7178 35.6316 25.4421C36.828 24.6452 37.8814 24.1399 39.3667 23.6504C41.3025 23.0123 42.1421 22.8966 44.5406 22.9376C46.4457 22.9703 46.7037 22.999 47.8856 23.3112ZM47.2025 24.4849C46.8054 24.5584 46.5819 24.8015 46.4975 25.2519C46.3475 26.0514 45.7521 27.7259 45.2993 28.6216C44.5176 30.1679 43.5703 31.4811 42.2171 32.8945C40.7187 34.4596 40.2258 35.2684 40.0091 36.518C39.7919 37.7698 39.8227 43.3644 40.0523 44.3436C40.3975 45.8163 40.9708 46.7059 41.9383 47.2699L42.3964 47.5369L48.1403 47.5071C53.7055 47.4782 53.8977 47.4703 54.3189 47.2536C54.5698 47.1244 54.9026 46.8111 55.1065 46.512C55.4023 46.0783 55.4596 45.8944 55.4596 45.3808C55.4596 44.9922 55.3842 44.6204 55.2538 44.3659C55.1405 44.1449 55.0923 43.9369 55.1466 43.9034C55.201 43.87 55.3507 43.6393 55.4792 43.3908C55.7521 42.8632 55.8073 41.8265 55.5897 41.3112C55.4624 41.0094 55.4792 40.9248 55.7808 40.3547C56.0483 39.8487 56.1115 39.5986 56.1115 39.045C56.1115 38.6686 56.0621 38.2312 56.0016 38.073C55.9073 37.8264 55.9291 37.756 56.155 37.5794C56.6146 37.2199 56.9807 36.3363 56.9807 35.5869C56.9807 33.856 55.637 32.9349 53.341 33.0921C51.1939 33.2392 49.4239 33.278 49.2833 33.181C49.1047 33.0579 49.2124 32.4562 49.7615 30.5125C50.5962 27.5579 50.5308 26.0954 49.5212 25.1425C49.0016 24.652 47.9344 24.3494 47.2025 24.4849ZM22.8112 25.7083C24.3079 25.8486 25.8472 26.1568 27.1984 26.5867C28.4235 26.9764 30.4076 27.8212 30.5783 28.0257C30.6686 28.134 30.5559 28.3845 30.1083 29.0702C28.1275 32.1045 27.1858 35.4996 27.3555 38.9949C27.3916 39.7378 27.4534 40.5036 27.4928 40.6968L27.5645 41.0479H14.5676C1.66925 41.0479 1.57071 41.0463 1.57071 40.8331C1.57071 40.4855 2.18478 38.6799 2.70629 37.4939C4.88749 32.5338 9.51346 28.3465 14.6464 26.6862C17.5005 25.763 20.0888 25.4529 22.8112 25.7083ZM48.3389 25.9794C49.201 26.3862 49.1705 27.479 48.1946 31.1412C47.7609 32.7687 47.7352 33.6995 48.1135 34.0758C48.5432 34.5031 49.1646 34.6203 50.7335 34.5698C51.5103 34.5447 52.7899 34.5212 53.5769 34.5174C54.9442 34.5109 55.0203 34.5222 55.2865 34.771C55.6714 35.1309 55.7495 35.6416 55.498 36.1538C55.3342 36.4874 55.1969 36.5965 54.7612 36.7403C53.8531 37.0398 53.6699 37.5915 54.3159 38.0815C54.5635 38.2694 54.7166 38.4917 54.7613 38.7283C54.8587 39.2448 54.6301 39.8479 54.2808 39.9955C53.4976 40.3267 53.4012 40.7982 53.9929 41.4042C54.3019 41.7206 54.3732 41.8766 54.3732 42.2361C54.3732 42.7157 54.0081 43.2091 53.6533 43.2091C53.3825 43.2091 53.0694 43.5289 53.0694 43.8055C53.0694 44.0927 53.4311 44.5762 53.7125 44.665C54.2074 44.8212 54.222 45.7519 53.7337 46.0119C53.5902 46.0883 51.7152 46.1266 48.1127 46.1266H42.7071L42.3475 45.8834C41.5021 45.3118 41.2037 43.923 41.2042 40.5617C41.2045 37.7635 41.3336 36.4991 41.7002 35.7029C41.8801 35.312 42.3731 34.7043 43.2522 33.7898C45.2659 31.6949 46.4926 29.719 47.3659 27.1628C47.5891 26.5091 47.7933 25.9378 47.8196 25.8932C47.8856 25.7807 47.9354 25.7889 48.3389 25.9794ZM32.4265 35.7532C32.2148 35.9637 32.2092 36.1134 32.2092 41.5263V47.0834L32.4955 47.3073C32.7676 47.5203 32.9146 47.5313 35.4881 47.5313H38.1947L38.4613 47.266L38.728 47.0008V41.5342V36.0676L38.4613 35.8024L38.1947 35.5371H35.4192C32.7886 35.5371 32.6325 35.5484 32.4265 35.7532ZM34.7907 41.5612L34.8191 46.1266H34.2203H33.6216V41.5286V36.9305L34.192 36.9632L34.7624 36.9959L34.7907 41.5612ZM37.3156 41.5342V46.1266H36.718H36.1205V41.5342V36.9418H36.718H37.3156V41.5342Z" fill="white"/>
</svg>
