<svg width="96" height="95" viewBox="0 0 96 95" fill="none" xmlns="http://www.w3.org/2000/svg">
<path d="M25.6933 8.63509C25.1131 8.78385 24.8437 8.77446 24.6894 8.90692C12.3656 19.3472 5.09586 32.4637 4.11552 48.7426C3.8963 52.8842 4.6663 57.0184 6.36178 60.8033C8.04527 64.8026 10.9797 68.1484 14.7252 70.3393C18.4707 72.5301 22.8255 73.4478 27.1366 72.9549C31.7864 72.4676 36.1662 71.267 39.8037 68.0605C39.7708 65.8541 39.5976 63.6783 39.7348 61.5282C39.7795 59.8832 40.1821 58.2678 40.9145 56.7942C41.6468 55.3207 42.6915 54.0243 43.9756 52.9954C46.0037 51.3617 48.2334 50.9576 49.6486 52.0266C50.4475 52.6068 51.0273 53.4396 51.2944 54.3902C51.5614 55.3408 51.5 56.3536 51.1202 57.265C50.1533 59.8641 48.9473 62.3679 47.5177 64.744C46.516 66.238 45.4025 67.6538 44.1868 68.9794C46.8217 77.1572 55.3668 79.4674 64.3667 74.3787C64.4866 73.1498 64.5371 71.8251 64.7614 70.5332C65.568 65.8853 67.7183 62.058 71.9706 59.7532C73.567 58.8944 75.4097 58.3702 77.131 59.6721C78.457 60.6638 78.7979 62.7891 77.9292 65.0516C76.5455 68.6537 74.0328 71.4384 71.193 73.9554C70.2036 74.8295 69.1735 75.6413 68.1806 76.4471C71.8107 89.2451 85.0103 96.5548 95.6778 89.4552C95.7288 90.4188 95.9688 91.229 95.7316 91.7424C95.3186 92.3359 94.7206 92.7758 94.0311 92.9933C87.9266 95.2039 81.9202 95.4468 76.2905 91.6405C72.1682 88.8014 68.811 84.9879 66.5175 80.5389C66.1753 79.8986 65.828 79.2744 65.4422 78.6489C65.389 78.5581 65.2525 78.5193 64.9526 78.3236C64.3214 78.4884 63.4779 78.665 62.7161 78.9201C53.0009 82.1209 47.3351 80.2874 41.1576 71.7417L38.4261 73.1464C33.1742 76.0304 27.1133 77.0892 21.1946 76.1567C11.1973 74.6051 3.74607 67.4393 1.44404 57.2782C0.210922 51.8163 0.19068 46.1505 1.38472 40.68C4.25364 27.2828 10.7015 16.0614 21.6606 7.61286C22.2304 7.16733 22.799 6.71434 23.3589 6.25513C23.4398 6.18829 23.4464 6.04179 23.6551 5.49477C21.047 5.31799 18.6776 5.94391 16.3172 6.43824C13.9569 6.93258 11.6845 7.49667 9.17742 8.07629C9.07667 7.34744 9.21841 6.60567 9.58085 5.96534C9.94328 5.32501 10.5063 4.82166 11.183 4.53287C12.5223 3.72498 13.9649 3.10217 15.4714 2.68142C19.5087 1.86607 23.572 1.11536 27.6643 0.681337C30.9181 0.361873 32.0899 1.95291 31.0719 4.79858C28.9043 10.8381 26.6994 16.8684 24.4574 22.8895C24.0016 23.9141 23.4824 24.9092 22.9027 25.8691C21.2202 24.4767 21.6506 23.1815 21.9778 21.9569C23.1982 17.6392 24.4037 13.3239 25.6933 8.63509ZM75.201 62.277C70.1859 63.8038 67.498 67.6199 68.0696 72.2712C71.145 69.4171 74.1054 66.8421 75.201 62.277ZM48.1254 54.825C43.8858 56.5537 42.3203 59.8872 43.5219 64.3663C45.9626 61.5627 48.079 58.8813 48.1254 54.825Z" fill="black"/>
</svg>
