<svg width="87" height="87" viewBox="0 0 87 87" fill="none" xmlns="http://www.w3.org/2000/svg">
<path fill-rule="evenodd" clip-rule="evenodd" d="M43.5 9.93738e-06C52.1047 1.19016e-05 60.5162 2.55198 67.6704 7.33312C74.8245 12.1143 80.4 18.9098 83.6916 26.8601C86.9831 34.8104 87.8428 43.5583 86.162 51.9972C84.4811 60.4362 80.3353 68.1871 74.2487 74.2695C68.1622 80.3519 60.4085 84.4926 51.9684 86.1677C43.5283 87.8429 34.781 86.9772 26.8329 83.6803C18.8848 80.3834 12.0931 74.8033 7.31679 67.6459C2.54048 60.4885 -0.00580408 52.0753 9.93426e-06 43.4706C8.62883e-06 37.7595 1.12538 32.1043 3.31182 26.8283C5.49826 21.5523 8.7029 16.7589 12.7426 12.7219C16.7824 8.68485 21.578 5.48344 26.8555 3.30056C32.133 1.11769 37.7889 -0.00385153 43.5 9.93738e-06Z" fill="#ECB239"/>
</svg>
